HIERARCHY
ROOT Hips
{
	OFFSET 0.000000 0.000000 0.000000
	CHANNELS 6 Xposition Yposition Zposition Zrotation Yrotation Xrotation 
	JOINT LowerBack
	{
		OFFSET 0.000000 0.000000 0.000000
		CHANNELS 3 Zrotation Yrotation Xrotation
		JOINT Spine
		{
			OFFSET 0.028270 2.035590 -0.193380
			CHANNELS 3 Zrotation Yrotation Xrotation
			JOINT Spine1
			{
				OFFSET 0.056720 2.048850 -0.042750
				CHANNELS 3 Zrotation Yrotation Xrotation
				JOINT Neck
				{
					OFFSET 0.000000 0.000000 0.000000
					CHANNELS 3 Zrotation Yrotation Xrotation
					JOINT Neck1
					{
						OFFSET -0.054170 1.746240 0.172020
						CHANNELS 3 Zrotation Yrotation Xrotation
						JOINT Head
						{
							OFFSET 0.104070 1.761360 -0.123970
							CHANNELS 3 Zrotation Yrotation Xrotation
							End Site
							{
								OFFSET 0.000000 0.000000 0.000000
							}
						}
					}
				}
				JOINT LeftShoulder
				{
					OFFSET 0.000000 0.000000 0.000000
					CHANNELS 3 Zrotation Yrotation Xrotation
					JOINT LeftArm
					{
						OFFSET 3.362410 1.200890 -0.311210
						CHANNELS 3 Zrotation Yrotation Xrotation
						JOINT LeftForeArm
						{
							OFFSET 4.983000 -0.000000 -0.000000
							CHANNELS 3 Zrotation Yrotation Xrotation
							JOINT LeftHand
							{
								OFFSET 3.483560 -0.000000 -0.000000
								CHANNELS 3 Zrotation Yrotation Xrotation
								JOINT LeftFingerBase
								{
									OFFSET 0.000000 0.000000 0.000000
									CHANNELS 3 Zrotation Yrotation Xrotation
									JOINT LeftHandIndex1
									{
										OFFSET 0.715260 -0.000000 -0.000000
										CHANNELS 3 Zrotation Yrotation Xrotation
										End Site
										{
											OFFSET 0.000000 0.000000 0.000000
										}
									}
								}
								JOINT LThumb
								{
									OFFSET 0.000000 0.000000 0.000000
									CHANNELS 3 Zrotation Yrotation Xrotation
									End Site
									{
										OFFSET 0.000000 0.000000 0.000000
									}
								}
							}
						}
					}
				}
				JOINT RightShoulder
				{
					OFFSET 0.000000 0.000000 0.000000
					CHANNELS 3 Zrotation Yrotation Xrotation
					JOINT RightArm
					{
						OFFSET -3.136600 1.374050 -0.404650
						CHANNELS 3 Zrotation Yrotation Xrotation
						JOINT RightForeArm
						{
							OFFSET -5.241900 -0.000000 -0.000000
							CHANNELS 3 Zrotation Yrotation Xrotation
							JOINT RightHand
							{
								OFFSET -3.444170 -0.000000 -0.000000
								CHANNELS 3 Zrotation Yrotation Xrotation
								JOINT RightFingerBase
								{
									OFFSET 0.000000 0.000000 0.000000
									CHANNELS 3 Zrotation Yrotation Xrotation
									JOINT RightHandIndex1
									{
										OFFSET -0.622530 -0.000000 -0.000000
										CHANNELS 3 Zrotation Yrotation Xrotation
										End Site
										{
											OFFSET 0.000000 0.000000 0.000000
										}
									}
								}
								JOINT RThumb
								{
									OFFSET 0.000000 0.000000 0.000000
									CHANNELS 3 Zrotation Yrotation Xrotation
									End Site
									{
										OFFSET 0.000000 0.000000 0.000000
									}
								}
							}
						}
					}
				}
			}
		}
	}
}
}
MOTION
Frames: 10
Frame Time: 0.008333
7.404135 15.380136 2.491911 8.817855 67.130833 34.066701 -3.094267 -1.735703 12.458541 -1.216005 -1.363135 -0.517771 -5.077898 -1.250816 -1.491296 5.353008 -4.967166 -2.772512 -2.651806 -0.226876 0.877768 0.000000 0.000000 0.000000 1.047101 1.747741 0.453993 -57.998728 -24.665802 -1.057727 -179.499355 -83.458853 179.949633 5.510637 3.545510 0.155138 -0.168136 0.440660 -0.000000 0.000000 0.000000 0.000000 0.000000 0.000000 0.000000 5.304675 -2.334294 1.420833 77.717445 -13.375357 17.829206 0.143475 67.978118 -0.062662 -18.534418 5.513853 -0.949789 0.170755 -0.255516 -0.000000 0.000000 0.000000 0.000000 0.000000 0.000000 0.000000 
7.556611 15.450368 2.584454 8.706239 66.900461 33.832800 -2.825566 -1.922400 12.456311 -1.162162 -1.569173 -0.488464 -5.057740 -1.455361 -1.420996 5.380557 -5.757346 -2.910729 -2.626104 -0.224462 0.847684 0.000000 0.000000 0.000000 1.932801 1.766959 0.340122 -57.070539 -25.559235 -1.771594 -179.422205 -82.233716 179.955241 4.819439 3.190807 0.119716 -0.152734 0.458693 -0.000000 0.000000 0.000000 0.000000 0.000000 0.000000 0.000000 5.184096 -3.206101 1.354900 76.922416 -14.995129 19.416673 0.153127 70.173710 -0.059392 -17.535738 6.519128 -1.056417 0.162678 -0.266520 -0.000000 0.000000 0.000000 0.000000 0.000000 0.000000 0.000000 
7.710119 15.527536 2.681090 8.574830 66.617599 33.602304 -2.561968 -2.093138 12.431292 -1.107858 -1.760885 -0.464804 -5.030712 -1.646821 -1.344467 5.380436 -6.570984 -3.056752 -2.593097 -0.221516 0.815876 0.000000 0.000000 0.000000 2.762062 1.784454 0.223453 -56.069221 -26.194981 -2.523964 -179.347100 -80.964891 179.960319 4.223792 2.881496 0.092796 -0.138446 0.474477 -0.000000 0.000000 0.000000 0.000000 0.000000 0.000000 0.000000 5.003307 -4.095624 1.284898 76.227129 -16.458784 20.789517 0.160003 72.269258 -0.056190 -16.448527 7.420637 -1.123560 0.152940 -0.277719 -0.000000 0.000000 0.000000 0.000000 0.000000 0.000000 0.000000 
7.865269 15.610867 2.781601 8.409346 66.287976 33.367989 -2.292466 -2.250182 12.373931 -1.049815 -1.940682 -0.446749 -4.995503 -1.827435 -1.253257 5.346873 -7.395670 -3.213507 -2.551563 -0.217886 0.781591 0.000000 0.000000 0.000000 3.517471 1.837960 0.105998 -55.028744 -26.617181 -3.269782 -179.276302 -79.688449 179.964742 3.723027 2.622842 0.072773 -0.125633 0.487887 -0.000000 0.000000 0.000000 0.000000 0.000000 0.000000 0.000000 4.754555 -4.990517 1.212436 75.656157 -17.765821 21.930978 0.163754 74.191446 -0.053086 -15.344331 8.137272 -1.146421 0.142321 -0.287636 -0.000000 0.000000 0.000000 0.000000 0.000000 0.000000 0.000000 
8.022310 15.699356 2.885736 8.203305 65.918938 33.126220 -2.012336 -2.394928 12.279228 -0.985633 -2.110096 -0.437440 -4.947994 -1.998954 -1.153922 5.277116 -8.204776 -3.372211 -2.501987 -0.213698 0.747404 0.000000 0.000000 0.000000 4.221522 1.906687 -0.013959 -54.020849 -26.792654 -3.996297 -179.210464 -78.399944 179.968624 3.297175 2.408961 0.057947 -0.113851 0.499049 0.000000 0.000000 0.000000 0.000000 0.000000 0.000000 0.000000 4.434463 -5.861736 1.142896 75.226021 -18.947322 22.820068 0.164380 75.906997 -0.050130 -14.286065 8.626711 -1.129600 0.131600 -0.295244 -0.000000 0.000000 0.000000 0.000000 0.000000 0.000000 0.000000 
8.181493 15.791987 2.993365 7.955401 65.516968 32.878044 -1.718089 -2.529331 12.145633 -0.914182 -2.270952 -0.436930 -4.888355 -2.163032 -1.045301 5.173981 -8.983732 -3.533793 -2.445393 -0.208972 0.712918 0.000000 0.000000 0.000000 4.876489 2.014026 -0.133925 -53.090914 -26.760022 -4.664890 -179.149541 -77.118365 179.972135 2.921913 2.231800 0.046515 -0.102808 0.508219 0.000000 0.000000 0.000000 0.000000 0.000000 0.000000 0.000000 4.051713 -6.693385 1.076030 74.934480 -20.024894 23.463374 0.162060 77.409632 -0.047384 -13.331354 8.886631 -1.084693 0.121629 -0.300028 -0.000000 0.000000 0.000000 0.000000 0.000000 0.000000 0.000000 
8.342827 15.887682 3.104334 7.671563 65.088501 32.628346 -1.409341 -2.655116 11.975544 -0.835556 -2.424641 -0.444389 -4.818728 -2.320789 -0.926633 5.044791 -9.720961 -3.700847 -2.383460 -0.203746 0.677175 0.000000 0.000000 0.000000 5.481524 2.186984 -0.249862 -52.270434 -26.573021 -5.238896 -179.092446 -75.865110 179.975483 2.571256 2.080830 0.037379 -0.092179 0.515773 0.000000 0.000000 0.000000 0.000000 0.000000 0.000000 0.000000 3.622983 -7.473227 1.009776 74.767766 -21.019488 23.877971 0.157254 78.717853 -0.044922 -12.519888 8.948704 -1.025196 0.113077 -0.302070 -0.000000 0.000000 0.000000 0.000000 0.000000 0.000000 0.000000 
8.506154 15.985345 3.218590 7.364300 64.639625 32.385550 -1.089375 -2.773352 11.775439 -0.750921 -2.571768 -0.458710 -4.741672 -2.472554 -0.799767 4.899218 -10.409308 -3.875414 -2.318378 -0.198105 0.639343 0.000000 0.000000 0.000000 6.043439 2.438328 -0.358867 -51.585932 -26.272559 -5.695709 -179.037226 -74.651293 179.978905 2.218769 1.942725 0.029438 -0.081494 0.522185 0.000000 0.000000 0.000000 0.000000 0.000000 0.000000 0.000000 3.168628 -8.193721 0.942698 74.707306 -21.951004 24.085918 0.150640 79.865668 -0.042806 -11.867867 8.865312 -0.962404 0.106309 -0.301920 -0.000000 0.000000 0.000000 0.000000 0.000000 0.000000 0.000000 
8.671125 16.083822 3.336070 7.051043 64.176601 32.159864 -0.764829 -2.884693 11.555005 -0.662274 -2.712481 -0.479321 -4.659384 -2.618275 -0.671194 4.747953 -11.041591 -4.056041 -2.253045 -0.192246 0.599603 0.000000 0.000000 0.000000 6.582017 2.754571 -0.460083 -51.064782 -25.866277 -6.031180 -178.981651 -73.472581 179.982613 1.841320 1.802001 0.022190 -0.070175 0.527976 0.000000 0.000000 0.000000 0.000000 0.000000 0.000000 0.000000 2.710397 -8.846835 0.875320 74.735455 -22.841216 24.104651 0.142975 80.896189 -0.041064 -11.365691 8.697309 -0.904213 0.101290 -0.300429 -0.000000 0.000000 0.000000 0.000000 0.000000 0.000000 0.000000 
8.837446 16.182048 3.456754 6.748906 63.704493 31.961252 -0.440217 -2.989944 11.323893 -0.571725 -2.846990 -0.502999 -4.576553 -2.757686 -0.538377 4.601126 -11.624925 -4.249388 -2.189034 -0.186156 0.555790 0.000000 0.000000 0.000000 7.087567 3.158437 -0.549920 -50.694216 -25.418397 -6.228729 -178.923545 -72.346715 179.986701 1.428888 1.649590 0.015338 -0.058143 0.533575 0.000000 0.000000 0.000000 0.000000 0.000000 0.000000 0.000000 2.268534 -9.441702 0.804738 74.830856 -23.689889 23.969133 0.134825 81.848426 -0.039715 -10.997093 8.506257 -0.855820 0.097866 -0.298541 -0.000000 0.000000 0.000000 0.000000 0.000000 0.000000 0.000000 
